# xmcd CD database file
#
# Track frame offsets:
#	150
#	11713
#	29256
#	50701
#	62238
#	75865
#	101211
#	117792
#	134786
#	150555
#	168607
#	182174
#	200557
#	215714
#	233791
#	253237
#	276720
#
# Disc length: 3954 seconds
#
# Revision: 0
# Processed by: cddbd v1.5.2PL0 Copyright (c) Steve Scherf et al.
# Submitted via: CDex 1.51
#
DISCID=060f7011
DTITLE=Old Time Memory Jazzband - Old Time Memory Jazzband
DYEAR=1999
DGENRE=Jazz
TTITLE0=New Orleans Stomp
TTITLE1=Moten Stomp
TTITLE2=Gully Low Blues
TTITLE3=Georgia Swing
TTITLE4=She's Crying For Me
TTITLE5=St. James Infirmary
TTITLE6=Ory's Creole Trombone
TTITLE7=Shine
TTITLE8=London Blues
TTITLE9=I've Found A New Baby
TTITLE10=Twelfth Street Rag
TTITLE11=Cakewalking Babies
TTITLE12=Papa Dip
TTITLE13=New Orleans Function
TTITLE14=Coney Island Washboard
TTITLE15=The Last Time
TTITLE16=Tiger Rag
EXTD=YEAR: 1999
EXTT0=
EXTT1=
EXTT2=
EXTT3=
EXTT4=
EXTT5=
EXTT6=
EXTT7=
EXTT8=
EXTT9=
EXTT10=
EXTT11=
EXTT12=
EXTT13=
EXTT14=
EXTT15=
EXTT16=
PLAYORDER=
